HIERARCHY
ROOT Hips
{
  OFFSET 1.44925e-005 102.336 -0.101585
  CHANNELS 6 Xposition Yposition Zposition Zrotation Xrotation Yrotation
  JOINT LeftUpLeg
  {
    OFFSET 8.9458 -8.66707 0.101652
    CHANNELS 3 Zrotation Xrotation Yrotation
    JOINT LeftLeg
    {
      OFFSET 0 -44.4227 1.3727
      CHANNELS 3 Zrotation Xrotation Yrotation
      JOINT LeftFoot
      {
        OFFSET -0.253549 -42.0924 -1.46059
        CHANNELS 3 Zrotation Xrotation Yrotation
        JOINT LeftToes
        {
          OFFSET -0.04 -4.41509 8.4991
          CHANNELS 3 Zrotation Xrotation Yrotation
          End Site
          {
            OFFSET 0.08 -0.047448 9.77979
          }
        }
      }
    }
  }
  JOINT Spine
  {
    OFFSET 0 11.8905 0
    CHANNELS 3 Zrotation Xrotation Yrotation
    JOINT Spine1
    {
      OFFSET 0 25.6574 0.127663
      CHANNELS 3 Zrotation Xrotation Yrotation
      JOINT RightShoulder
      {
        OFFSET -8.99 -0.362252 -0.22
        CHANNELS 3 Zrotation Xrotation Yrotation
        JOINT RightArm
        {
          OFFSET -10.2827 -0.00338 0.322123
          CHANNELS 3 Zrotation Xrotation Yrotation
          JOINT RightForeArm
          {
            OFFSET -26.364 0.099144 -1.42434
            CHANNELS 3 Zrotation Xrotation Yrotation
            JOINT RightHand
            {
              OFFSET -22.0324 0.085362 1.02216
              CHANNELS 3 Zrotation Xrotation Yrotation
              End Site
              {
                OFFSET -13.3284 -0.6 1.50291
              }
            }
          }
        }
      }
      JOINT LeftShoulder1
      {
        OFFSET 8.99 -0.362252 -0.22
        CHANNELS 3 Zrotation Xrotation Yrotation
        JOINT LeftArm
        {
          OFFSET 10.2827 -0.00337999 0.322123
          CHANNELS 3 Zrotation Xrotation Yrotation
          JOINT LeftForeArm
          {
            OFFSET 26.2597 0.099144 -1.42434
            CHANNELS 3 Zrotation Xrotation Yrotation
            JOINT LeftHand
            {
              OFFSET 22.0902 0.085362 1.02216
              CHANNELS 3 Zrotation Xrotation Yrotation
              End Site
              {
                OFFSET 13.419 -0.6 1.50291
              }
            }
          }
        }
      }
      JOINT Head
      {
        OFFSET 0 8.73416 0.011341
        CHANNELS 3 Zrotation Xrotation Yrotation
        End Site
        {
          OFFSET -0.29 12.7742 2.51395
        }
      }
    }
  }
  JOINT RightUpLeg
  {
    OFFSET -8.9458 -8.66707 0.101652
    CHANNELS 3 Zrotation Xrotation Yrotation
    JOINT RightLeg
    {
      OFFSET 0 -44.4227 1.3727
      CHANNELS 3 Zrotation Xrotation Yrotation
      JOINT RightFoot
      {
        OFFSET 0.253549 -42.0924 -1.46059
        CHANNELS 3 Zrotation Xrotation Yrotation
        JOINT RightToes
        {
          OFFSET 0.04 -4.41509 8.4991
          CHANNELS 3 Zrotation Xrotation Yrotation
          End Site
          {
            OFFSET -0.08 -0.137448 9.77979
          }
        }
      }
    }
  }
}
MOTION
Frames:	12
Frame Time:	0.0333333
52.2473 96.2838 6.43541 -10.3384 0.435854 -83.0714 2.08881 19.1163 2.83727 0.879692 32.6698 13.548 -18.0649 -24.6174 -2.62694 -1.31331e-009 8.75241e-006 -1.47864e-008 -5.54458 11.1333 -1.93247 14.3856 -0.0657721 -4.6583 29.8938 1.40924 -0.188795 50.1635 -31.4995 38.5523 -12.4054 23.3312 91.9692 2.69812 9.87193 -5.8117 -27.945 2.15271 -2.81503 -37.5891 3.97283 -49.8169 24.8801 39.197 -59.3569 5.82328 9.61819 -0.917488 -2.65604 5.68941 -7.398 -1.53759 -17.2948 -13.769 2.06464 23.1439 -21.5742 3.28647 -8.83981 -0.138832 0.0462048 0.000530889 0.662642 
48.4348 95.9371 6.07085 -10.4729 2.93891 -85.915 5.68986 14.3027 5.26861 1.14799 45.7576 12.7801 -18.8416 -15.0979 -1.24134 -1.31331e-009 8.75241e-006 -1.47864e-008 5.41295 9.93887 0.0135391 5.22716 1.77915 0.0177018 26.719 1.33534 -0.100195 53.2043 -27.3836 56.9992 -15.8017 28.3032 73.9171 -0.568442 9.87681 -3.21169 -32.6344 2.51762 -3.00017 -37.7821 5.23898 -34.9646 28.0209 39.9864 -62.0668 5.82328 9.61819 -0.917488 -2.04062 5.07749 -11.2094 2.60971 -17.7093 -13.0614 0.896601 26.7144 -18.9196 -2.22982 -6.90041 -0.167427 0.0462048 0.000530889 0.662642 
45.3629 95.3951 5.76413 -11.0642 5.03684 -87.9868 9.04629 6.03587 5.5259 1.73303 62.9448 13.4678 -14.6478 -1.08889 0.822004 -1.31331e-009 8.75241e-006 -1.47864e-008 15.9704 12.2622 1.23321 -4.03064 2.18318 4.57481 21.3045 1.17868 -0.037679 52.3997 -23.9017 71.3696 -13.7829 35.271 48.0293 -5.82939 9.61549 1.11853 -36.0748 2.78124 -3.08612 -37.4618 2.06659 -19.8194 30.5168 41.6851 -62.4696 5.82328 9.61819 -0.917488 -0.840951 2.81085 -15.1961 6.06681 -17.7351 -11.8519 -0.593134 30.9432 -17.0114 -3.93499 -8.93498 -0.217948 0.0462048 0.000530889 0.662642 
42.6678 94.773 5.62414 -11.5908 6.72749 -88.1828 11.0701 -4.05523 3.44927 4.26636 80.0343 11.3378 -11.2931 8.30236 1.52966 -1.31331e-009 8.75241e-006 -1.47864e-008 25.1912 15.0827 1.76028 -12.1136 2.49131 8.78984 14.2763 0.930614 -0.142349 51.154 -24.3932 81.05 -5.93367 43.6606 19.7718 -8.55234 9.27914 4.00743 -37.2662 2.87918 -3.12408 -35.3162 0.453325 -7.69066 31.7542 44.2742 -60.3663 5.82328 9.61819 -0.917488 0.128897 0.26392 -20.6502 8.09917 -17.0503 -10.7038 -0.767349 34.3568 -17.5763 -2.58299 -12.5594 -0.315546 0.0462048 0.000530889 0.662642 
39.577 94.9758 5.5549 -11.5575 7.55324 -88.564 11.2048 -13.6003 1.78344 169.799 86.0458 -155.854 -9.38605 8.37567 1.25638 -1.31331e-009 8.75241e-006 -1.47864e-008 31.6496 16.6664 3.12094 -18.8068 2.98713 13.0461 8.58337 0.750201 -0.178285 59.6011 -28.6995 90.3463 9.73188 57.9679 -6.51359 -7.78528 9.30098 4.55256 -37.4684 2.89528 -3.12877 -32.0323 3.39388 1.876 30.0647 46.7365 -55.1369 5.82328 9.61819 -0.917488 0.393084 -1.07234 -26.5534 8.99951 -15.1482 -9.93205 -0.164348 34.9717 -18.215 -1.34021 -14.6692 -0.304456 0.0462048 0.000530889 0.662642 
36.1222 95.9058 5.43859 -11.0685 7.59812 -90.0408 10.5394 -21.8984 1.58827 177.129 76.3808 -165.668 -8.09068 2.79552 0.701463 -1.31331e-009 8.75241e-006 -1.47864e-008 34.276 17.8501 5.11602 -22.8643 2.77497 16.4586 6.37691 0.718785 0.0519313 58.5746 -32.0498 91.7101 12.8627 58.6716 -13.1866 -6.98755 9.39498 4.10374 -38.0511 2.94598 -3.15226 -29.0202 7.37099 12.3614 26.8942 47.2236 -50.3704 5.82328 9.61819 -0.917488 0.682029 -1.27568 -30.5297 9.27487 -12.5083 -8.11677 0.72773 33.6284 -18.7331 -0.766589 -15.6386 -0.279329 0.0462048 0.000530889 0.662642 
32.6023 96.8503 5.28544 -10.8379 7.152 -91.2786 9.47027 -29.0575 1.47304 178.012 70.4344 -167.15 -8.13249 -2.59249 0.359066 -1.31331e-009 8.75241e-006 -1.47864e-008 33.8157 18.874 6.5354 -23.5756 2.00556 17.9702 6.74059 0.750931 0.198499 60.0811 -34.2185 93.1792 9.90968 56.3782 -10.9574 -8.36198 9.29877 3.80305 -38.4906 2.98825 -3.17857 -27.8178 8.50804 24.9417 25.8389 46.5028 -49.8309 5.82328 9.61819 -0.917488 1.22624 -1.58641 -31.8165 8.92154 -9.36344 -6.29652 1.53374 32.0022 -19.0179 0.415145 -16.939 -0.19826 0.0462048 0.000530889 0.662642 
29.0314 97.6451 5.09884 -11.2794 6.48344 -91.6938 7.65377 -34.6659 0.734983 178.133 67.9424 -165.487 -8.26397 -6.37008 0.119101 -1.31331e-009 8.75241e-006 -1.47864e-008 31.8232 19.3154 7.27708 -22.1052 1.8334 18.096 7.65919 0.752529 0.0104896 59.2109 -35.1825 93.6505 9.23428 52.4219 -10.2954 -10.0727 9.1238 4.31548 -37.6903 2.91831 -3.14593 -28.7143 7.00349 37.237 26.2243 45.67 -51.4463 5.82328 9.61819 -0.917488 1.25884 -2.42212 -31.5664 8.01496 -5.31343 -5.4858 2.2895 30.0805 -18.9808 1.90542 -18.2082 -0.0638043 0.0462048 0.000530889 0.662642 
25.4699 98.3534 4.89888 -12.1371 5.87368 -92.2223 5.91791 -38.3117 0.419067 177.861 68.8948 -163.101 -7.84873 -10.4214 -0.144329 -1.31331e-009 8.75241e-006 -1.47864e-008 29.5753 19.3446 7.96605 -20.1992 2.62395 18.0833 7.61709 0.686195 -0.421039 57.3248 -35.2706 93.7167 9.96839 51.5991 -10.5566 -9.61092 9.12686 4.78928 -35.9967 2.77762 -3.08909 -29.919 3.8444 47.4602 25.4603 44.215 -52.3667 5.82328 9.61819 -0.917488 0.43478 -3.11887 -30.9215 7.02688 -0.705061 -5.65565 2.71586 27.7344 -17.8966 2.61822 -18.9549 0.0166368 0.0462048 0.000530889 0.662642 
21.9869 98.8555 4.72453 -12.9043 5.45005 -93.2713 5.26569 -40.4892 1.19204 177.208 73.123 -161.251 -7.94856 -14.0247 -0.381878 -1.31331e-009 8.75241e-006 -1.47864e-008 27.5479 19.2324 8.73571 -18.6734 3.61452 18.1999 6.6589 0.575055 -1.01167 58.0664 -34.6464 94.4407 9.97122 52.5066 -10.6376 -7.99302 9.27362 4.71563 -34.6731 2.68391 -3.0783 -29.1881 -0.0923842 55.3593 23.553 41.887 -53.1011 5.82328 9.61819 -0.917488 -0.461448 -3.30927 -30.1237 6.18221 3.54764 -6.35973 2.71391 25.6716 -15.6929 2.88932 -19.8632 0.0625994 0.0462048 0.000530889 0.662642 
18.5656 99.1326 4.54431 -13.1764 5.01982 -94.0258 5.1491 -41.6534 2.34168 175.017 80.4801 -157.659 -8.63297 -15.8803 -0.551341 -1.31331e-009 8.75241e-006 -1.47864e-008 25.5518 18.7109 9.28593 -17.4571 4.26875 17.9489 6.26145 0.461298 -1.75291 60.7247 -33.8613 95.0772 8.72833 49.8793 -10.0694 -7.49785 9.34865 4.17929 -34.1979 2.65863 -3.09432 -27.445 -3.21541 60.2361 22.5682 39.7675 -55.1493 5.82328 9.61819 -0.917488 -0.772506 -3.43234 -29.1527 5.37567 7.06656 -7.09903 2.65245 23.9325 -13.6281 3.33904 -20.9267 0.136673 0.0462048 0.000530889 0.662642 
15.2403 99.3418 4.31747 -12.8123 4.52436 -94.0955 4.86687 -41.4387 3.28179 32.996 88.3464 -13.8954 -8.78331 -17.0838 -0.650059 -1.31331e-009 8.75241e-006 -1.47864e-008 23.6049 17.4982 9.52543 -16.464 4.72402 17.2333 7.54738 0.388005 -2.37101 62.9604 -33.672 94.3618 6.3909 42.429 -6.69556 -8.01113 9.35463 3.37404 -34.1697 2.66082 -3.10418 -27.0026 -4.95044 60.9346 23.4687 38.6116 -58.4815 5.82328 9.61819 -0.917488 -0.914968 -3.74898 -28.0557 4.64403 9.93418 -7.69064 2.80784 21.9405 -12.2756 3.7211 -21.4231 0.195624 0.0462048 0.000530889 0.662642 
